<svg width="22" height="22" viewBox="0 0 22 22" fill="none" xmlns="http://www.w3.org/2000/svg">
<rect width="22" height="22" rx="11" fill="white"/>
<path  fill="#5429FF" d="M15.8732 12.9565C14.9184 13.3404 13.8718 13.4353 12.8635 13.2293C11.8553 13.0233 10.9298 12.5256 10.2021 11.7979C9.47441 11.0702 8.97663 10.1447 8.77065 9.13646C8.56466 8.12819 8.65953 7.08162 9.04349 6.12683C7.91282 6.58226 6.97578 7.41681 6.39301 8.48742C5.81024 9.55803 5.61803 10.798 5.84933 11.9948C6.08064 13.1916 6.72105 14.2707 7.66078 15.047C8.60052 15.8234 9.78104 16.2487 11 16.25C12.0482 16.25 13.0724 15.9364 13.9409 15.3495C14.8093 14.7625 15.4823 13.9291 15.8732 12.9565Z" stroke="#9E9CA4" stroke-linecap="round" stroke-linejoin="round"/>
</svg>
