<svg width="22" height="22" viewBox="0 0 22 22" fill="none" xmlns="http://www.w3.org/2000/svg">
<rect width="22" height="22" rx="11" fill="white"/>
<path fill-rule="evenodd" clip-rule="evenodd" d="M11 5.75C11.174 5.75 11.341 5.81914 11.464 5.94221C11.5871 6.06528 11.6562 6.2322 11.6562 6.40625V7.0625C11.6562 7.23655 11.5871 7.40347 11.464 7.52654C11.341 7.64961 11.174 7.71875 11 7.71875C10.826 7.71875 10.659 7.64961 10.536 7.52654C10.4129 7.40347 10.3438 7.23655 10.3438 7.0625V6.40625C10.3438 6.2322 10.4129 6.06528 10.536 5.94221C10.659 5.81914 10.826 5.75 11 5.75ZM13.625 11C13.625 11.6962 13.3484 12.3639 12.8562 12.8562C12.3639 13.3484 11.6962 13.625 11 13.625C10.3038 13.625 9.63613 13.3484 9.14384 12.8562C8.65156 12.3639 8.375 11.6962 8.375 11C8.375 10.3038 8.65156 9.63613 9.14384 9.14384C9.63613 8.65156 10.3038 8.375 11 8.375C11.6962 8.375 12.3639 8.65156 12.8562 9.14384C13.3484 9.63613 13.625 10.3038 13.625 11ZM13.3205 14.2484L13.7845 14.7124C13.9082 14.8319 14.074 14.8981 14.2461 14.8966C14.4181 14.8951 14.5827 14.8261 14.7044 14.7044C14.8261 14.5827 14.8951 14.4181 14.8966 14.2461C14.8981 14.074 14.8319 13.9082 14.7124 13.7845L14.2484 13.3205C14.1247 13.201 13.9589 13.1348 13.7868 13.1363C13.6148 13.1378 13.4502 13.2068 13.3285 13.3285C13.2068 13.4502 13.1378 13.6148 13.1363 13.7868C13.1348 13.9589 13.201 14.1247 13.3205 14.2484ZM14.7118 7.28759C14.8348 7.41066 14.9039 7.57755 14.9039 7.75156C14.9039 7.92558 14.8348 8.09247 14.7118 8.21553L14.2484 8.6795C14.1879 8.74218 14.1155 8.79217 14.0354 8.82657C13.9554 8.86096 13.8692 8.87906 13.7821 8.87982C13.695 8.88058 13.6086 8.86397 13.5279 8.83098C13.4473 8.79798 13.374 8.74925 13.3124 8.68763C13.2507 8.62602 13.202 8.55275 13.169 8.47209C13.136 8.39144 13.1194 8.30503 13.1202 8.21789C13.1209 8.13076 13.139 8.04464 13.1734 7.96458C13.2078 7.88451 13.2578 7.8121 13.3205 7.75156L13.7845 7.28759C13.9075 7.16457 14.0744 7.09545 14.2484 7.09545C14.4225 7.09545 14.5893 7.16457 14.7124 7.28759H14.7118ZM15.5938 11.6562C15.7678 11.6562 15.9347 11.5871 16.0578 11.464C16.1809 11.341 16.25 11.174 16.25 11C16.25 10.826 16.1809 10.659 16.0578 10.536C15.9347 10.4129 15.7678 10.3438 15.5938 10.3438H14.9375C14.7635 10.3438 14.5965 10.4129 14.4735 10.536C14.3504 10.659 14.2812 10.826 14.2812 11C14.2812 11.174 14.3504 11.341 14.4735 11.464C14.5965 11.5871 14.7635 11.6562 14.9375 11.6562H15.5938ZM11 14.2812C11.174 14.2812 11.341 14.3504 11.464 14.4735C11.5871 14.5965 11.6562 14.7635 11.6562 14.9375V15.5938C11.6562 15.7678 11.5871 15.9347 11.464 16.0578C11.341 16.1809 11.174 16.25 11 16.25C10.826 16.25 10.659 16.1809 10.536 16.0578C10.4129 15.9347 10.3438 15.7678 10.3438 15.5938V14.9375C10.3438 14.7635 10.4129 14.5965 10.536 14.4735C10.659 14.3504 10.826 14.2812 11 14.2812ZM7.75156 8.6795C7.81249 8.74047 7.88483 8.78885 7.96446 8.82186C8.04408 8.85488 8.12943 8.87188 8.21563 8.87191C8.30182 8.87194 8.38718 8.855 8.46683 8.82204C8.54648 8.78908 8.61886 8.74076 8.67983 8.67983C8.7408 8.6189 8.78917 8.54656 8.82219 8.46693C8.8552 8.38731 8.87221 8.30196 8.87224 8.21576C8.87227 8.12957 8.85533 8.04421 8.82237 7.96456C8.78941 7.88491 8.74109 7.81254 8.68016 7.75156L8.21553 7.28759C8.09176 7.16805 7.92599 7.10191 7.75392 7.1034C7.58186 7.1049 7.41726 7.17391 7.29559 7.29559C7.17391 7.41726 7.1049 7.58186 7.1034 7.75392C7.10191 7.92599 7.16805 8.09176 7.28759 8.21553L7.75156 8.6795ZM8.6795 14.2484L8.21553 14.7124C8.09176 14.8319 7.92599 14.8981 7.75392 14.8966C7.58186 14.8951 7.41726 14.8261 7.29559 14.7044C7.17391 14.5827 7.1049 14.4181 7.1034 14.2461C7.10191 14.074 7.16805 13.9082 7.28759 13.7845L7.75156 13.3205C7.87533 13.201 8.0411 13.1348 8.21317 13.1363C8.38524 13.1378 8.54983 13.2068 8.67151 13.3285C8.79318 13.4502 8.8622 13.6148 8.86369 13.7868C8.86519 13.9589 8.79904 14.1247 8.6795 14.2484ZM7.0625 11.6562C7.23655 11.6562 7.40347 11.5871 7.52654 11.464C7.64961 11.341 7.71875 11.174 7.71875 11C7.71875 10.826 7.64961 10.659 7.52654 10.536C7.40347 10.4129 7.23655 10.3438 7.0625 10.3438H6.40625C6.2322 10.3438 6.06528 10.4129 5.94221 10.536C5.81914 10.659 5.75 10.826 5.75 11C5.75 11.174 5.81914 11.341 5.94221 11.464C6.06528 11.5871 6.2322 11.6562 6.40625 11.6562H7.0625Z" fill="#5429FF"/>
</svg>
